<svg xmlns="http://www.w3.org/2000/svg" width="180" height="180" viewBox="0 0 180 180">
  <!-- Background -->
  <rect width="180" height="180" fill="url(#gradient)" rx="40"/>
  
  <!-- Gradient Definition -->
  <defs>
    <linearGradient id="gradient" x1="0%" y1="0%" x2="100%" y2="100%">
      <stop offset="0%" style="stop-color:#3b82f6;stop-opacity:1" />
      <stop offset="100%" style="stop-color:#8b5cf6;stop-opacity:1" />
    </linearGradient>
  </defs>
  
  <!-- Palette Icon -->
  <g transform="translate(90, 90) scale(3)">
    <circle cx="13.5" cy="6.5" r=".5" fill="white"></circle>
    <circle cx="17.5" cy="10.5" r=".5" fill="white"></circle>
    <circle cx="8.5" cy="7.5" r=".5" fill="white"></circle>
    <circle cx="6.5" cy="12.5" r=".5" fill="white"></circle>
    <path d="M12 22c5.523 0 10-4.477 10-10S17.523 2 12 2 2 6.477 2 12c0 2.21 1.79 4 4 4h3c.552 0 1 .448 1 1 0 .93.675 1.714 1.575 1.95.398.106.823.165 1.275.165z" fill="white"></path>
  </g>
</svg>